<svg id="Layer_1" data-name="Layer 1" xmlns="http://www.w3.org/2000/svg" viewBox="0 0 438.62 71.1"><defs><style>.cls-1,.cls-5{fill:#fff;}.cls-2,.cls-3{fill:#054b60;}.cls-3,.cls-5{font-size:54.58px;font-family:Cabin;font-weight:700;}.cls-4{letter-spacing:-1px;}.cls-6{fill:#39a3dc;stroke:#fff;stroke-miterlimit:10;stroke-width:1.16px;}</style></defs><title>Timeline-Logo</title><path class="cls-1" d="M3406.69,53.91h-11v3.3a5.07,5.07,0,0,1-5.07,5.07H3389a5.07,5.07,0,0,1-5.07-5.07v-3.3h-18v3.3a5.07,5.07,0,0,1-5.07,5.07h-1.58a5.07,5.07,0,0,1-5.07-5.07v-3.3h-11a1.86,1.86,0,0,0-1.86,1.86V109.7a1.86,1.86,0,0,0,1.86,1.86h63.48a1.86,1.86,0,0,0,1.86-1.86V55.77A1.86,1.86,0,0,0,3406.69,53.91Z" transform="translate(-3341.35 -46.55)"/><rect class="cls-2" x="45.77" width="5.36" height="13.01" rx="2.32" ry="2.32"/><rect class="cls-2" x="16.07" width="5.36" height="13.01" rx="2.32" ry="2.32"/><text class="cls-3" transform="translate(85.42 57.45)">Bah<tspan class="cls-4" x="91.42" y="0">á</tspan><tspan x="116.91" y="0">’í</tspan></text><text class="cls-5" transform="translate(234.66 57.45)">T<tspan x="29.8" y="0">imeline</tspan></text><rect class="cls-2" x="3357.5" y="82.31" width="27.47" height="3.47" transform="translate(3401.11 121.55) rotate(180)"/><circle class="cls-1" cx="17.59" cy="37.5" r="2.58"/><path class="cls-2" d="M3358.94,82.62a1.43,1.43,0,1,1-1.43,1.43,1.43,1.43,0,0,1,1.43-1.43m0-2.31a3.74,3.74,0,1,0,3.74,3.74,3.74,3.74,0,0,0-3.74-3.74h0Z" transform="translate(-3341.35 -46.55)"/><polygon class="cls-6" points="45.72 28.37 42.94 30.65 39.54 29.5 38.88 33.02 35.53 34.32 37.29 37.45 35.57 40.6 38.92 41.87 39.63 45.38 43.01 44.2 45.81 46.44 47.64 43.36 51.23 43.28 50.65 39.74 53.34 37.37 50.63 35.03 51.17 31.48 47.58 31.44 45.72 28.37"/><circle class="cls-1" cx="3385.29" cy="84.07" r="3.47" transform="translate(-3173.27 1094.32) rotate(-19.61)"/></svg>