<svg id="Layer_1" data-name="Layer 1" xmlns="http://www.w3.org/2000/svg" viewBox="0 0 438.62 71.1"><defs><style>.cls-1,.cls-5{fill:#fff;}.cls-2,.cls-3{fill:#054b60;}.cls-3,.cls-5{font-size:54.58px;font-family:Cabin;font-weight:700;}.cls-4{letter-spacing:-1px;}.cls-6{fill:#39a3dc;stroke:#fff;stroke-miterlimit:10;}</style></defs><title>Logo</title><path class="cls-1" d="M3406.69,53.91h-11v3.3a5.07,5.07,0,0,1-5.07,5.07H3389a5.07,5.07,0,0,1-5.07-5.07v-3.3h-18v3.3a5.07,5.07,0,0,1-5.07,5.07h-1.58a5.07,5.07,0,0,1-5.07-5.07v-3.3h-11a1.86,1.86,0,0,0-1.86,1.86V109.7a1.86,1.86,0,0,0,1.86,1.86h63.48a1.86,1.86,0,0,0,1.86-1.86V55.77A1.86,1.86,0,0,0,3406.69,53.91Z" transform="translate(-3341.35 -46.55)"/><rect class="cls-2" x="45.77" width="5.36" height="13.01" rx="2.32" ry="2.32"/><rect class="cls-2" x="16.07" width="5.36" height="13.01" rx="2.32" ry="2.32"/><text class="cls-3" transform="translate(85.42 57.45)">Bah<tspan class="cls-4" x="91.42" y="0">á</tspan><tspan x="116.91" y="0">’í</tspan></text><text class="cls-5" transform="translate(234.66 57.45)">T<tspan x="29.8" y="0">imeline</tspan></text><rect class="cls-2" x="3357.4" y="82.27" width="27.97" height="3.54" transform="translate(3401.42 121.53) rotate(180)"/><circle class="cls-1" cx="17.99" cy="37.49" r="2.24"/><path class="cls-2" d="M3359.34,82.8a1.24,1.24,0,1,1-1.24,1.24,1.24,1.24,0,0,1,1.24-1.24m0-2a3.24,3.24,0,1,0,3.24,3.24,3.24,3.24,0,0,0-3.24-3.24h0Z" transform="translate(-3341.35 -46.55)"/><circle class="cls-1" cx="29.49" cy="37.49" r="2.24"/><path class="cls-2" d="M3370.84,82.8a1.24,1.24,0,1,1-1.24,1.24,1.24,1.24,0,0,1,1.24-1.24m0-2a3.24,3.24,0,1,0,3.24,3.24,3.24,3.24,0,0,0-3.24-3.24h0Z" transform="translate(-3341.35 -46.55)"/><polygon class="cls-6" points="45.84 29.59 43.43 31.56 40.49 30.56 39.92 33.61 37.02 34.74 38.54 37.45 37.05 40.17 39.95 41.27 40.57 44.31 43.49 43.28 45.92 45.23 47.5 42.56 50.61 42.49 50.1 39.42 52.44 37.37 50.08 35.35 50.55 32.28 47.45 32.24 45.84 29.59"/><circle class="cls-1" cx="3385.65" cy="84.06" r="3" transform="translate(-3173.24 1094.44) rotate(-19.61)"/></svg>