<?xml version="1.0" standalone="no"?>
<!DOCTYPE svg PUBLIC "-//W3C//DTD SVG 20010904//EN"
 "http://www.w3.org/TR/2001/REC-SVG-20010904/DTD/svg10.dtd">
<svg version="1.0" xmlns="http://www.w3.org/2000/svg"
 width="263.000000pt" height="263.000000pt" viewBox="0 0 263.000000 263.000000"
 preserveAspectRatio="xMidYMid meet">
<metadata>
Created by potrace 1.11, written by Peter Selinger 2001-2013
</metadata>
<g transform="translate(0.000000,263.000000) scale(0.100000,-0.100000)"
fill="#000000" stroke="none">
<path d="M802 2295 c-26 -22 -26 -24 -27 -171 -1 -163 5 -185 53 -202 37 -12
72 -1 95 30 17 23 19 42 19 154 0 71 -1 136 -1 145 -1 9 -13 28 -27 42 -32 32
-76 33 -112 2z"/>
<path d="M1728 2305 c-15 -8 -30 -25 -33 -36 -4 -12 -7 -85 -7 -162 1 -128 3
-141 22 -162 12 -13 32 -25 45 -28 32 -6 83 20 91 47 4 11 8 77 9 146 2 141
-9 184 -50 200 -34 13 -44 12 -77 -5z"/>
<path d="M327 2091 c-6 -2 -20 -10 -29 -19 -17 -14 -18 -68 -18 -867 0 -827 1
-852 19 -869 18 -17 84 -18 1017 -18 997 0 998 0 1015 20 15 19 16 91 16 867
0 770 -1 848 -16 866 -15 19 -28 21 -166 21 -83 0 -165 -1 -182 -1 l-33 -1 0
-63 c0 -128 -60 -191 -181 -190 -118 1 -177 61 -176 181 0 34 -3 65 -6 69 -9
8 -535 8 -543 0 -3 -3 -7 -37 -8 -74 -4 -123 -59 -177 -178 -176 -121 1 -169
48 -178 175 l-5 81 -168 1 c-92 1 -173 -1 -180 -3z"/>
</g>
</svg>
